<svg xmlns="http://www.w3.org/2000/svg" viewBox="0 0 750 500"><g id="freepik--Icons--inject-64"><path d="M524,68.38c-1.08-8.76-8.49-16.93-17.32-16.93-5.21,0-10.16,2.72-13.72,6.52a36.6,36.6,0,0,0-3.49,4.13,35.65,35.65,0,0,0-2.6-4.73c-2.74-4.43-7.06-8.08-12.17-9.1-8.65-1.73-17.52,4.81-20.31,13.19s-.47,17.77,4.12,25.31,12.48,17.39,27,22.28c10-1.29,23.46-10.18,29.44-16.67S525.05,77.13,524,68.38Z" style="fill:#5EFFEA"></path><path d="M520.78,84.1a1.29,1.29,0,0,1-.29,0l-.85-.06-3.27-.27-12-1.1.22-.13c-1.45,3.77-3.14,8.19-5,13l-.3.78-.2-.82c-1.53-6.32-3.23-13.41-5-20.88-.55-2.31-1.1-4.59-1.63-6.81l.51.1-9.16,12.6-.09.12-.15,0-21.08-2.2-6-.66-1.58-.2a2.13,2.13,0,0,1-.54-.1,2.85,2.85,0,0,1,.55,0l1.58.11,6,.52,21.1,2-.23.1,9.12-12.62.36-.51.14.61c.54,2.22,1.08,4.49,1.64,6.81l5,20.89-.5,0c1.89-4.83,3.62-9.24,5.1-13l.05-.15.16,0,12,1.28,3.25.38.85.11A1,1,0,0,1,520.78,84.1Z" style="fill:#fafafa"></path><rect x="300.24" y="123.05" width="6.6" height="29.59" style="fill:#5EFFEA"></rect><rect x="300.24" y="123.05" width="6.6" height="29.59" transform="translate(165.69 441.38) rotate(-90)" style="fill:#5EFFEA"></rect><path d="M328.11,137.92a3.35,3.35,0,0,1-.05-.4c0-.29-.05-.68-.08-1.17,0-.26,0-.55-.06-.86s-.1-.66-.16-1a17.67,17.67,0,0,0-.52-2.54,23.5,23.5,0,0,0-2.74-6.52A24.43,24.43,0,0,0,295.13,115a24.91,24.91,0,0,0-3.19,1.4,25.77,25.77,0,0,0-3,1.93,27.78,27.78,0,0,0-2.77,2.35,28.36,28.36,0,0,0-2.39,2.83,23.86,23.86,0,0,0-3.49,6.72,24.19,24.19,0,0,0,0,15.41,23.72,23.72,0,0,0,3.49,6.72,26.26,26.26,0,0,0,2.39,2.83,26.61,26.61,0,0,0,2.77,2.36,25.77,25.77,0,0,0,3,1.93,26.39,26.39,0,0,0,3.19,1.4,24.51,24.51,0,0,0,29.37-10.42,23.42,23.42,0,0,0,2.74-6.53,17.29,17.29,0,0,0,.52-2.53c.06-.38.13-.72.16-1s0-.6.06-.86c0-.5.06-.88.08-1.17a3,3,0,0,1,.05-.4,2.38,2.38,0,0,1,0,.4c0,.29,0,.68,0,1.17l0,.87c0,.32-.09.66-.13,1a18.45,18.45,0,0,1-.48,2.56,23.54,23.54,0,0,1-2.69,6.63A24.85,24.85,0,0,1,308,162.36,25,25,0,0,1,295,161.31a27.35,27.35,0,0,1-3.25-1.42,27.49,27.49,0,0,1-5.89-4.36,27.08,27.08,0,0,1-2.44-2.88,23.88,23.88,0,0,1-3.57-6.87,26.53,26.53,0,0,1-1.29-7.87,26.84,26.84,0,0,1,1.29-7.86,24.08,24.08,0,0,1,3.57-6.86,28.23,28.23,0,0,1,2.44-2.89,28.87,28.87,0,0,1,2.83-2.39A24.85,24.85,0,0,1,308,113.48a24.85,24.85,0,0,1,16.71,11.77,23.61,23.61,0,0,1,2.69,6.62,18.84,18.84,0,0,1,.48,2.57c0,.37.11.72.13,1l0,.86c0,.5,0,.89,0,1.18A2.47,2.47,0,0,1,328.11,137.92Z" style="fill:#5EFFEA"></path></g><g id="freepik--character-2--inject-64"><path d="M367.44,163.08c-.36-.14-14.31-3.8-13.47,10.31s14.83,10.35,14.84,9.94S367.44,163.08,367.44,163.08Z" style="fill:#b78876"></path><path d="M364.18,178.25c-.07-.05-.24.18-.64.4a2.44,2.44,0,0,1-1.84.14c-1.52-.45-2.92-2.74-3.14-5.28A8.24,8.24,0,0,1,359,170a2.84,2.84,0,0,1,1.74-2,1.25,1.25,0,0,1,1.49.59c.21.38.14.67.21.69s.29-.26.14-.83a1.52,1.52,0,0,0-.61-.85,1.82,1.82,0,0,0-1.38-.28,3.45,3.45,0,0,0-2.43,2.34,8.22,8.22,0,0,0-.62,4c.26,2.84,1.88,5.41,3.95,5.88a2.64,2.64,0,0,0,2.23-.51C364.17,178.59,364.23,178.27,364.18,178.25Z" style="fill:#aa6550"></path><path d="M402.66,112.69c7.17,0,14.47,0,23.44,4.69,5.66,3,9.18,7.63,12.13,13.29a30.6,30.6,0,0,1,3.34,14.89c-.26,4.88-.28,8.29-2.23,12.77" style="fill:#263238"></path><path d="M399.79,113.8a38,38,0,0,1,40.65,35.94c.92,17.67,1.73,36.78,1.54,46.4-.42,20.66-21.11,23.71-21.11,23.71s.46,6.12,1,13.72a27.22,27.22,0,0,1-26.12,29h0a27.2,27.2,0,0,1-28.22-26.18l-3.07-83.26a38,38,0,0,1,35.36-39.35Z" style="fill:#b78876"></path><path d="M420.87,219.85s-12.7.66-26.5-8.17c0,0,6.25,15,26.87,13.34Z" style="fill:#aa6550"></path><path d="M432.52,161.23a2.94,2.94,0,0,1-2.86,3,2.81,2.81,0,0,1-3-2.68,3,3,0,0,1,2.86-3A2.82,2.82,0,0,1,432.52,161.23Z" style="fill:#263238"></path><path d="M435.39,157.05c-.37.38-2.59-1.29-5.77-1.31s-5.51,1.56-5.85,1.17c-.17-.18.21-.87,1.23-1.6a8,8,0,0,1,4.69-1.4,7.68,7.68,0,0,1,4.58,1.52C435.24,156.18,435.57,156.88,435.39,157.05Z" style="fill:#263238"></path><path d="M401.39,161.23a2.94,2.94,0,0,1-2.87,3,2.82,2.82,0,0,1-3-2.68,3,3,0,0,1,2.87-3A2.83,2.83,0,0,1,401.39,161.23Z" style="fill:#263238"></path><path d="M404.18,157.4c-.37.38-2.6-1.29-5.77-1.31s-5.51,1.55-5.86,1.16c-.16-.17.21-.87,1.24-1.6a8.09,8.09,0,0,1,4.69-1.4,7.82,7.82,0,0,1,4.58,1.52C404,156.53,404.36,157.22,404.18,157.4Z" style="fill:#263238"></path><path d="M415.51,181c0-.18,2-.5,5.16-.89.81-.08,1.58-.23,1.72-.78a4.06,4.06,0,0,0-.52-2.41c-.74-2-1.53-4-2.35-6.19-3.26-8.82-5.61-16.06-5.25-16.19s3.29,6.91,6.54,15.73c.79,2.17,1.54,4.24,2.25,6.23a4.69,4.69,0,0,1,.4,3.18,2.09,2.09,0,0,1-1.35,1.18,6.15,6.15,0,0,1-1.37.18C417.52,181.21,415.52,181.21,415.51,181Z" style="fill:#263238"></path><path d="M406.15,183.15c.52,0,.49,3.42,3.42,5.89s6.61,2.12,6.63,2.6c0,.22-.83.67-2.38.7a8.6,8.6,0,0,1-5.53-2,7.53,7.53,0,0,1-2.65-4.94C405.52,184,405.91,183.13,406.15,183.15Z" style="fill:#263238"></path><path d="M405.09,145c-.32.86-3.48.43-7.21.85s-6.75,1.41-7.24.63c-.21-.37.32-1.18,1.54-2a12.63,12.63,0,0,1,11-1.12C404.55,143.87,405.23,144.55,405.09,145Z" style="fill:#263238"></path><path d="M434.94,145.75c-.56.72-2.74-.05-5.37-.1s-4.86.44-5.37-.32c-.22-.37.13-1.09,1.11-1.76a7.77,7.77,0,0,1,8.66.34C434.89,144.66,435.19,145.4,434.94,145.75Z" style="fill:#263238"></path><path d="M364.67,159.6s.9,4.78,1.14,6.93c.09.79,0,9.54,2.11,10,1.83.38,5.46-1.29,7.08-4.91s4.7-12.31,4.36-16.26c-.45-5.38-.7-10.86.38-16.16s3.61-10.46,7.86-13.8,10.4-4.49,15.24-2.07c3,1.5,5.21,4.15,8,6a12.41,12.41,0,0,0,8.52,2.21,8,8,0,0,0,6.59-5.4c.88-3.15-.74-6.6-3.27-8.69s-5.78-3.05-9-3.69a48.39,48.39,0,0,0-26.82,1.88c-8.47,3.29-16,9.61-19.6,17.94-4.18,9.63-3.7,15.54-2.59,26" style="fill:#263238"></path><path d="M411.89,161.36a24.26,24.26,0,0,0-.54-3.4,14,14,0,0,0-5.11-7.61,13.74,13.74,0,0,0-5.83-2.56,13.93,13.93,0,0,0-7.26.61,12.84,12.84,0,0,0-3.48,1.89,12.69,12.69,0,0,0-2.92,2.93,13.76,13.76,0,0,0,0,16.29,13.09,13.09,0,0,0,2.92,2.93,12.8,12.8,0,0,0,3.48,1.88,13.94,13.94,0,0,0,7.26.62,13.7,13.7,0,0,0,5.83-2.57,14,14,0,0,0,5.12-7.6,24.94,24.94,0,0,0,.53-3.41.6.6,0,0,1,0,.23v.67a5.74,5.74,0,0,1-.09,1.09,9.24,9.24,0,0,1-.26,1.46,14,14,0,0,1-5.09,7.86,14.17,14.17,0,0,1-13.47,2.1,13.2,13.2,0,0,1-3.62-1.93,13.4,13.4,0,0,1-3-3,14.23,14.23,0,0,1,0-16.9,14.42,14.42,0,0,1,6.65-5,14.38,14.38,0,0,1,7.49-.59,14.12,14.12,0,0,1,6,2.7,14,14,0,0,1,5.09,7.85,9.34,9.34,0,0,1,.26,1.47,5.64,5.64,0,0,1,.09,1.08v.67C411.91,161.29,411.9,161.36,411.89,161.36Z" style="fill:#263238"></path><path d="M448.26,161.36a26.34,26.34,0,0,0-.54-3.4,14,14,0,0,0-5.12-7.61,13.69,13.69,0,0,0-5.83-2.56,13.89,13.89,0,0,0-7.25.61,13.89,13.89,0,0,0-6.4,4.82,13.72,13.72,0,0,0,0,16.29,13.05,13.05,0,0,0,2.91,2.93,12.71,12.71,0,0,0,3.49,1.88,13.9,13.9,0,0,0,7.25.62,13.7,13.7,0,0,0,5.83-2.57,14,14,0,0,0,5.12-7.6,26.31,26.31,0,0,0,.54-3.41,2.07,2.07,0,0,1,0,.23c0,.18,0,.4,0,.67a6.56,6.56,0,0,1-.08,1.09,9.36,9.36,0,0,1-.27,1.46,13.9,13.9,0,0,1-5.09,7.86,14.07,14.07,0,0,1-6,2.69,14.21,14.21,0,0,1-7.5-.59,14.15,14.15,0,0,1-6.64-5,14.19,14.19,0,0,1,0-16.9,13.31,13.31,0,0,1,3-3,13.51,13.51,0,0,1,3.62-1.94,14.41,14.41,0,0,1,7.5-.59,14.08,14.08,0,0,1,6,2.7,13.91,13.91,0,0,1,5.09,7.85,9.46,9.46,0,0,1,.27,1.47,6.45,6.45,0,0,1,.08,1.08c0,.27,0,.49,0,.67A1.85,1.85,0,0,1,448.26,161.36Z" style="fill:#263238"></path><path d="M420.51,159.86c0,.08-.51-.18-1.3-.44A8.38,8.38,0,0,0,416,159a8.74,8.74,0,0,0-3.1.82c-.75.37-1.17.69-1.22.62s.3-.47,1-.94a7.22,7.22,0,0,1,6.6-.44C420.15,159.44,420.55,159.82,420.51,159.86Z" style="fill:#263238"></path><path d="M426.14,125c.21-1.07-.15-1.67.46-2.11s2,.82,2.46,1.34c.16.17.64-.49.83-.61a3.65,3.65,0,0,0,.36-1.37c-.09-.75-1.26-1-1.81-1.46a5.56,5.56,0,0,0-1.95-1.11,1.88,1.88,0,0,0-1.86.11,1.83,1.83,0,0,0-.42,1.4,3.83,3.83,0,0,0,.28,1.46,2,2,0,0,0,1,1.06" style="fill:#263238"></path><path d="M363.9,148.62s10.13,3.71,15.4,5.95l-.3-5.18-14.73-5.83S363.89,147.41,363.9,148.62Z" style="fill:#ebebeb"></path><path d="M364.85,140.57a58.3,58.3,0,0,1,7.17,2.75,56.51,56.51,0,0,1,7,3.23,58.3,58.3,0,0,1-7.17-2.75A56.51,56.51,0,0,1,364.85,140.57Z" style="fill:#ebebeb"></path><path d="M367.9,249.69l-.78-24.51s4.87,22.43,30.38,22.14c24.37-.28,23.93-19.76,23.93-19.76l.87,9.88v39.91l-15.9,65.11L386.09,345l-22.44-89Z" style="fill:#5EFFEA"></path><path d="M419.16,241.85a2.5,2.5,0,0,1-.29.52,14.74,14.74,0,0,1-1,1.42,21,21,0,0,1-4.54,4.4,26.12,26.12,0,0,1-8.48,4,29.88,29.88,0,0,1-11.45.79,37.1,37.1,0,0,1-11-3.31,47.88,47.88,0,0,1-8-4.84,56.57,56.57,0,0,1-4.86-4c-.55-.5-.95-.92-1.23-1.2a2.7,2.7,0,0,1-.4-.44,2.76,2.76,0,0,1,.47.37l1.3,1.12c1.12,1,2.78,2.33,4.94,3.88a49.87,49.87,0,0,0,8,4.7,37.31,37.31,0,0,0,10.85,3.22,29.9,29.9,0,0,0,11.25-.73,26.84,26.84,0,0,0,8.4-3.82,22.52,22.52,0,0,0,4.59-4.22C418.67,242.51,419.12,241.82,419.16,241.85Z" style="fill:#263238"></path><path d="M401.46,451.11l-.37-115.7L368.23,251l-1.1-25.41-20,15.14S318,341,317.51,337.54s0,113.57,0,113.57Z" style="fill:#ebebeb"></path><path d="M400.67,450.79c-.14,0-.26-26.07-.26-58.23s.12-58.23.26-58.23.26,26.07.26,58.23S400.81,450.79,400.67,450.79Z" style="fill:#263238"></path><polygon points="347.4 257.21 351.46 260.29 348.61 279.01 396.57 329.25 353.01 272.04 356.72 257.21 347.4 257.21" style="fill:#e0e0e0"></polygon><path d="M403.26,391.84l-73.61-21.58-2.44-55.91,20.19-73.66S299.28,264.7,296,280s-11.17,52.42-12,79.27c-.75,24-.86,40,4.62,47.71,15.7,21.94,119.14,25.86,160.46,0" style="fill:#ebebeb"></path><path d="M397.5,330.46s-.09-.08-.24-.27-.39-.48-.66-.82l-2.5-3.2c-2.18-2.82-5.29-6.86-9.12-11.84l-29.93-39.17-2.25-3-.08-.1,0-.12c1.28-5.12,2.53-10.09,3.72-14.83l.24.32-9.32,0h-.24v-.24c0-6,0-11.6,0-16.52v-.1l.08-.06,14.47-11,4-3,1-.77a1.9,1.9,0,0,1,.37-.24l-.33.29-1,.81-3.91,3.06-14.36,11.14.08-.16c0,4.92,0,10.47,0,16.52l-.24-.23,9.32,0H357l-.08.32-3.7,14.83-.05-.22,2.26,2.95,29.8,39.27,9,11.93c1,1.4,1.85,2.49,2.42,3.26.26.36.46.65.62.86Z" style="fill:#263238"></path><path d="M430.31,236.33c-5.87-10.26-8.92-9.2-8.92-9.2l.31,3.66v7.69l-2.79,33-17.83,71.69.37,107.94h67.41l8.39-131.76-.76-56.77Z" style="fill:#ebebeb"></path><path d="M476.5,262.58s17.45,12.88,19,33.61c1.23,16.83,4,62.92,4.55,72.95.8,15.62-11.37,52.21-43.05,41.85-19-6.22-89.18-30.07-89.18-30.07l4.67-29.81,83.3,5,1.66-69.48Z" style="fill:#ebebeb"></path><path d="M371.5,354.54s-23.58-2.55-29-1.23c-5.25,1.27-12.72,7.69-12.72,7.69l.11,9.31,37.93,10.61Z" style="fill:#b78876"></path><path d="M401.09,332.39a1.69,1.69,0,0,1,.11-.32c.08-.23.2-.54.35-.92.33-.84.81-2,1.41-3.52l5.28-12.92,7.88-19.14c.75-1.79,1.49-3.66,2.42-5.49s1.94-3.66,3-5.49a122.5,122.5,0,0,1,7.48-10.8c1.36-1.75,2.73-3.46,4.15-5.1l0,.27-2.94-7.47-.1-.25.25-.09L442.65,257l-.13.34c-5.7-9.52-10.51-17.56-13.93-23.26-1.68-2.82-3.12-5.08-4.65-6a6.31,6.31,0,0,0-1.86-.75,6.37,6.37,0,0,1-.69-.17,5.79,5.79,0,0,1,.7.09,5.93,5.93,0,0,1,1.93.71,8.53,8.53,0,0,1,2.36,2.29,40.44,40.44,0,0,1,2.45,3.68l14.1,23.18.15.25-.28.09-12.27,4.21.15-.33,2.95,7.47.06.14-.11.12c-1.4,1.62-2.77,3.33-4.12,5.08A123.23,123.23,0,0,0,422,284.86c-1.07,1.82-2.12,3.61-3,5.44s-1.66,3.65-2.41,5.45c-3,7.18-5.72,13.65-8,19.1s-4.14,9.79-5.43,12.85c-.64,1.49-1.15,2.66-1.5,3.49-.17.38-.3.67-.41.9A1.26,1.26,0,0,1,401.09,332.39Z" style="fill:#263238"></path><path d="M486.07,405.19a1.92,1.92,0,0,1-.29.31l-.9.87a25.89,25.89,0,0,1-3.83,2.9,25.56,25.56,0,0,1-7,2.94,28.17,28.17,0,0,1-10,.64,31.62,31.62,0,0,1-5.75-1.22c-2-.62-3.92-1.39-6-2.11-4.11-1.5-8.53-3-13.17-4.68-9.3-3.26-19.55-6.74-30.35-10.29-21.6-7.09-41.3-13.07-55.58-17.34l-16.92-5-4.6-1.37-1.19-.36a2.32,2.32,0,0,1-.4-.15l.42.09,1.2.32,4.63,1.27c4,1.12,9.81,2.77,17,4.85,14.3,4.17,34,10.1,55.63,17.2,10.81,3.54,21.06,7,30.35,10.32,4.64,1.65,9.05,3.22,13.16,4.73,2.06.74,4,1.52,6,2.14a31,31,0,0,0,5.67,1.23,28.15,28.15,0,0,0,9.92-.55,26.31,26.31,0,0,0,7-2.83,28.36,28.36,0,0,0,3.86-2.81l.93-.83A2.28,2.28,0,0,1,486.07,405.19Z" style="fill:#263238"></path><path d="M329.85,370.48c0,.11-1.33-.18-3.44-.09a15.12,15.12,0,0,0-3.64.6,16.56,16.56,0,0,0-4.1,1.87,19.16,19.16,0,0,0-5.71,5.86c-1.11,1.8-1.6,3-1.69,3a3.52,3.52,0,0,1,.28-.89,15.41,15.41,0,0,1,1.1-2.3,17.86,17.86,0,0,1,5.74-6.11,16.13,16.13,0,0,1,4.25-1.89,14.7,14.7,0,0,1,3.76-.51,12.27,12.27,0,0,1,2.54.23A3.42,3.42,0,0,1,329.85,370.48Z" style="fill:#263238"></path><path d="M306.66,363.18s0-.1.09-.27a2.64,2.64,0,0,1,.46-.65,4.73,4.73,0,0,1,2.62-1.3,13.29,13.29,0,0,1,4.32,0,24.5,24.5,0,0,1,5.13,1.25,22.52,22.52,0,0,1,8.13,5,17,17,0,0,1,1.89,2.21,4.38,4.38,0,0,1,.55.91c-.09.07-.91-1.21-2.69-2.85a23.87,23.87,0,0,0-8.06-4.75,27.09,27.09,0,0,0-5-1.27,14.07,14.07,0,0,0-4.2-.12,4.82,4.82,0,0,0-2.53,1.08C306.87,362.85,306.7,363.2,306.66,363.18Z" style="fill:#263238"></path><path d="M334.14,299a7.85,7.85,0,0,1-.34-1.51c-.15-.48-.36-1.05-.59-1.71s-.63-1.38-1.09-2.14a30.61,30.61,0,0,0-3.75-5,40.79,40.79,0,0,0-5.75-5.06,34.66,34.66,0,0,0-12.57-5.77,26.24,26.24,0,0,0-4.19-.54,9.39,9.39,0,0,1-1.55-.12,8.71,8.71,0,0,1,1.56-.08,21.3,21.3,0,0,1,4.25.38,33,33,0,0,1,12.8,5.71,37.86,37.86,0,0,1,5.8,5.15,28.75,28.75,0,0,1,3.72,5.14c.45.79.74,1.56,1,2.21s.4,1.28.52,1.77A10.55,10.55,0,0,1,334.14,299Z" style="fill:#263238"></path><path d="M473.89,384.46a1.77,1.77,0,0,1,0-.36l0-1.05c0-.92-.07-2.27-.2-4a56.1,56.1,0,0,0-3-14.41,20.39,20.39,0,0,0-2-4.4,8.63,8.63,0,0,0-3.9-3.31c-3.35-1.44-7.38-1.25-11.48-1.48l-26.84-1.13c-22.18-1-41.91-1.8-54.31-2.46l.17-.14c-.75,4.56-1.35,8.17-1.76,10.68-.21,1.21-.37,2.15-.49,2.82-.05.3-.1.54-.13.73l-.06.24a1.17,1.17,0,0,1,0-.25l.1-.73c.09-.67.23-1.62.4-2.84.38-2.51.92-6.13,1.61-10.7l0-.14h.15l54.31,2.26L453.3,355c2.06.1,4.07.15,6,.31a17.39,17.39,0,0,1,5.6,1.26A9.07,9.07,0,0,1,469,360a20.36,20.36,0,0,1,2,4.5A54,54,0,0,1,473.84,379c.11,1.74.11,3.1.1,4q0,.66,0,1.05C473.9,384.33,473.89,384.46,473.89,384.46Z" style="fill:#263238"></path><path d="M458,319.24c.14,0,.26,8.07.26,18s-.12,18-.26,18-.26-8.07-.26-18S457.86,319.24,458,319.24Z" style="fill:#263238"></path><path d="M296.58,278.17s-.06.23-.2.66-.39,1.08-.6,2c-.49,1.73-1.11,4.31-1.8,7.68-1.39,6.74-3.1,16.6-5,28.94-.95,6.18-2,13-3,20.31-.51,3.67-.83,7.49-1.09,11.45s-.47,8-.63,12.24c-.3,8.41-.48,17.29-.24,26.54.08,2.31.16,4.65.35,7,.06,1.18.26,2.34.4,3.51a29.59,29.59,0,0,0,.85,3.46,19.71,19.71,0,0,0,3.32,6.33,14.2,14.2,0,0,0,5.68,4.38h0a86.94,86.94,0,0,0,14.83,5.66c5.17,1.55,10.51,2.8,15.93,3.91a219.06,219.06,0,0,0,35.8,4.36,166.27,166.27,0,0,0,17.09-.44c5.57-.39,11-1,16.25-1.75a170.93,170.93,0,0,0,29.16-6.78,148.6,148.6,0,0,0,23.58-10.12l0,.33L415,396.37l-8.71-3.11-2.25-.82c-.51-.19-.76-.3-.76-.3l.77.25,2.27.77,8.74,3,32.4,11.3.39.13-.36.2A148.91,148.91,0,0,1,423.86,418a170.73,170.73,0,0,1-29.23,6.85c-5.26.79-10.7,1.38-16.28,1.77a167.18,167.18,0,0,1-17.14.46,218.76,218.76,0,0,1-35.89-4.36c-5.44-1.12-10.79-2.37-16-3.92a88.49,88.49,0,0,1-14.92-5.71h0a14.72,14.72,0,0,1-5.92-4.54,20.22,20.22,0,0,1-3.39-6.5,29.16,29.16,0,0,1-.87-3.52c-.15-1.2-.34-2.38-.4-3.56-.19-2.36-.27-4.71-.34-7-.24-9.28,0-18.16.28-26.58q.24-6.3.65-12.25c.27-4,.6-7.8,1.12-11.47,1-7.35,2.06-14.14,3-20.31,2-12.34,3.74-22.19,5.19-28.92.72-3.37,1.36-5.95,1.88-7.68.22-.87.5-1.51.64-1.94S296.58,278.17,296.58,278.17Z" style="fill:#263238"></path><path d="M329.74,363.57c12.31-13.63,11.77-37.86,4.7-55.05-.65,18.62-2.85,35.14-4.53,53.24" style="fill:#e0e0e0"></path><path d="M334.47,312a2.77,2.77,0,0,1,0,.6c0,.45-.06,1-.11,1.7-.12,1.55-.28,3.67-.49,6.25-.44,5.34-1,12.59-1.69,20.61l-1.62,20.62c-.19,2.58-.35,4.7-.47,6.25l-.15,1.69a4,4,0,0,1-.08.59,2,2,0,0,1,0-.59c0-.45,0-1,.05-1.71.05-1.48.16-3.62.3-6.26.31-5.28.81-12.58,1.47-20.63s1.32-15.33,1.85-20.6c.27-2.58.49-4.69.65-6.24.09-.69.16-1.25.21-1.69A2.2,2.2,0,0,1,334.47,312Z" style="fill:#263238"></path><path d="M364.81,287.38a105.27,105.27,0,0,1,.26,10.57,105.44,105.44,0,0,1-.26,10.57c-.14,0-.26-4.74-.26-10.57S364.67,287.38,364.81,287.38Z" style="fill:#263238"></path><path d="M356.79,322.49a10.82,10.82,0,0,0,2.27,5.6c1.16,1.51,3.51,3,5.4,2.87a8.24,8.24,0,0,0,7.27-3.65c2.3-3.66,2.87-11.29,1-15.8-1.27-3.1-4.12-6-7.47-6.07-4.4-.1-7.16,3.08-8.1,6.3" style="fill:#e0e0e0"></path><path d="M357.18,311.74a6.82,6.82,0,0,1,.81-2.16,8.9,8.9,0,0,1,1.65-2.17,7.72,7.72,0,0,1,3.12-1.82,7.81,7.81,0,0,1,2.09-.34,6.29,6.29,0,0,1,2.29.3,9,9,0,0,1,4.08,2.93,11.79,11.79,0,0,1,2.41,5,21.94,21.94,0,0,1,.44,5.93c-.2,3.13-.82,6.25-2.55,8.63a7.8,7.8,0,0,1-3.32,2.5,8.92,8.92,0,0,1-3.76.63h0a5.61,5.61,0,0,1-2.69-.66,9.05,9.05,0,0,1-2-1.42,10.13,10.13,0,0,1-2.2-3.28,9.33,9.33,0,0,1-.7-2.43,5.25,5.25,0,0,1-.06-.66.68.68,0,0,1,0-.23,14.12,14.12,0,0,0,1,3.22,10.15,10.15,0,0,0,2.22,3.13,8.84,8.84,0,0,0,2,1.32,5.3,5.3,0,0,0,2.5.59h0a8,8,0,0,0,6.65-3c1.61-2.23,2.23-5.3,2.42-8.36.22-4-.45-7.94-2.7-10.6A8.66,8.66,0,0,0,367,306a6.19,6.19,0,0,0-2.15-.31,7.61,7.61,0,0,0-2,.29,7.48,7.48,0,0,0-3,1.69,9.07,9.07,0,0,0-1.67,2.05A20,20,0,0,0,357.18,311.74Z" style="fill:#263238"></path><path d="M354.45,322.69a10.85,10.85,0,0,0,2.27,5.6c1.15,1.51,3.51,3,5.4,2.87a8.25,8.25,0,0,0,7.27-3.65c2.3-3.67,2.87-11.29,1-15.8-1.27-3.11-4.12-6-7.47-6.07a8.27,8.27,0,0,0-8.1,6.29" style="fill:#e0e0e0"></path><path d="M354.84,311.93a6.82,6.82,0,0,1,.81-2.15,8.9,8.9,0,0,1,1.65-2.17,7.72,7.72,0,0,1,5.21-2.16,6.32,6.32,0,0,1,2.29.3,9,9,0,0,1,4.08,2.93,11.66,11.66,0,0,1,2.4,5,21.54,21.54,0,0,1,.45,5.93c-.2,3.13-.82,6.24-2.55,8.63a7.8,7.8,0,0,1-3.32,2.5,8.92,8.92,0,0,1-3.76.63h0a5.61,5.61,0,0,1-2.69-.67,8.71,8.71,0,0,1-2-1.41,9.9,9.9,0,0,1-2.2-3.29,9.28,9.28,0,0,1-.7-2.42c0-.29-.06-.51-.07-.66a.82.82,0,0,1,0-.23,14.14,14.14,0,0,0,1,3.21,9.9,9.9,0,0,0,2.22,3.14,8.84,8.84,0,0,0,2,1.32,5.42,5.42,0,0,0,2.5.59h0a8,8,0,0,0,6.64-3c1.62-2.24,2.24-5.3,2.43-8.36.22-4-.45-7.94-2.7-10.6a8.56,8.56,0,0,0-3.85-2.82,6.14,6.14,0,0,0-2.14-.31,7.54,7.54,0,0,0-5,2,9.07,9.07,0,0,0-1.67,2.05A18.06,18.06,0,0,0,354.84,311.93Z" style="fill:#263238"></path><path d="M358.7,310.81a5.13,5.13,0,0,0-5.37,3.09,8.87,8.87,0,0,0,0,6.53,8.11,8.11,0,0,0,1.67,2.94,4.4,4.4,0,0,0,3,1.45,5.22,5.22,0,0,0,4.13-2.44,9.34,9.34,0,0,0,1.41-7.67c-.46-1.74-1.74-3.51-3.53-3.56" style="fill:#e0e0e0"></path><path d="M360,311.15s.14,0,.4,0a2.72,2.72,0,0,1,1.09.37,5.33,5.33,0,0,1,2.28,3.44,9.37,9.37,0,0,1-.62,6.12,7.76,7.76,0,0,1-2.24,2.94,4.34,4.34,0,0,1-3.86.93,5.4,5.4,0,0,1-3.08-2.52,11.29,11.29,0,0,1-1.28-3.46,7.69,7.69,0,0,1,1-6,5.38,5.38,0,0,1,3.48-2.22,3.93,3.93,0,0,1,1.15,0c.25.05.38.09.38.11a7.87,7.87,0,0,0-1.49.09,5.31,5.31,0,0,0-3.22,2.23,7.37,7.37,0,0,0-.83,5.73,10.77,10.77,0,0,0,1.25,3.29,4.89,4.89,0,0,0,2.78,2.28,3.83,3.83,0,0,0,3.41-.82,7.63,7.63,0,0,0,2.12-2.74,9.16,9.16,0,0,0,.69-5.84,5.24,5.24,0,0,0-2-3.35A4.14,4.14,0,0,0,360,311.15Z" style="fill:#263238"></path><path d="M363.74,327.25c-.08,0-.19-.32-.53-.72a3.72,3.72,0,0,0-1.71-1.09,8.59,8.59,0,0,0-2.1-.33c-.55,0-.91-.09-.91-.16s.34-.15.91-.21a5.87,5.87,0,0,1,2.26.2,3.27,3.27,0,0,1,1.85,1.38C363.82,326.84,363.8,327.24,363.74,327.25Z" style="fill:#263238"></path><path d="M364.53,309.45s-.16.35-.62.72a4.81,4.81,0,0,1-2.11.92,5,5,0,0,1-2.3-.12c-.56-.19-.86-.41-.83-.47a11.75,11.75,0,0,0,3,.08A12.49,12.49,0,0,0,364.53,309.45Z" style="fill:#263238"></path><path d="M433.24,237.82s.12,0,.33.12a8.72,8.72,0,0,1,.89.46,17.6,17.6,0,0,1,3,2.14,21.45,21.45,0,0,1,6.44,10.18,65.11,65.11,0,0,1,2.45,11.86c.18,1.54.27,2.79.33,3.65a6.06,6.06,0,0,1,0,1.35,7.62,7.62,0,0,1-.22-1.33c-.13-.95-.3-2.17-.49-3.62a76.59,76.59,0,0,0-2.59-11.76,22.16,22.16,0,0,0-6.18-10.06A33.53,33.53,0,0,0,433.24,237.82Z" style="fill:#263238"></path><path d="M420.78,347.89c2.9-.11,5.22-3,8.12-2.84a4,4,0,1,1-.68,8c-3.05-.35-4.83-3.92-7.81-4.6" style="fill:#263238"></path><path d="M445.36,350.36a17.15,17.15,0,0,1-2.71-.22l.16-1c3.58.57,6.59,0,8.94-1.75,3-2.17,4.87-6.06,5.67-11.56l0-.21c.33-2.18.78-44.95.78-53.07,0-12.69-11.13-14.42-11.61-14.49s-10.57-1.77-15.94,12.08c-5.62,14.51-14.61,42.47-15.2,45.75-.08.4-.19.9-.31,1.47-.94,4.2-2.88,12.93,2.94,17.95,6.49,5.61,11.61,3.44,11.82,3.35l.41.91c-.24.1-5.88,2.55-12.88-3.5-6.28-5.42-4.25-14.54-3.27-18.93.13-.56.23-1,.3-1.43.6-3.3,9.62-31.38,15.26-45.93s16.92-12.73,17-12.7,12.44,1.9,12.44,15.47c0,6.69-.44,50.9-.79,53.22l0,.2c-.84,5.78-2.88,9.89-6.07,12.23A11.51,11.51,0,0,1,445.36,350.36Z" style="fill:#263238"></path><path d="M458.73,290.74a18.42,18.42,0,0,0-2.08-5,17.21,17.21,0,0,0-3.95-4.28,17,17,0,0,0-6.43-3,18.79,18.79,0,0,0-12.65,1.65,22.62,22.62,0,0,0-4.41,3.15,1.44,1.44,0,0,1,.23-.3,6.94,6.94,0,0,1,.75-.8,15,15,0,0,1,3.25-2.37,18.58,18.58,0,0,1,12.95-1.84,17.18,17.18,0,0,1,6.6,3.16,16.6,16.6,0,0,1,4,4.47,13,13,0,0,1,1.54,3.72,8.18,8.18,0,0,1,.21,1.08C458.74,290.6,458.75,290.74,458.73,290.74Z" style="fill:#263238"></path><path d="M484.2,370.68a35.2,35.2,0,0,0-1.38-4.26,18.56,18.56,0,0,0-6.78-8.14,14.73,14.73,0,0,0-5.5-2,47.32,47.32,0,0,0-4.85-.5l-3.29-.23a5.76,5.76,0,0,1-1.2-.16,5,5,0,0,1,1.21,0l3.3.06a41.48,41.48,0,0,1,4.9.4,14.71,14.71,0,0,1,5.71,2,18.09,18.09,0,0,1,6.84,8.44,16,16,0,0,1,.92,3.19A4.57,4.57,0,0,1,484.2,370.68Z" style="fill:#263238"></path><path d="M433.75,354s9.84-14.89,12.35-16.84,24-11.65,26.49-10.09,1,4.94,1,4.94,9.08-3.18,10.05-1.93a4.49,4.49,0,0,1,0,5.12s5-.77,5,.78a6.37,6.37,0,0,1-2.9,5.22c-2.32,1.74-17.41,11.78-18.62,14.56l-4.89-.3Z" style="fill:#b78876"></path><path d="M462.05,349.73a4.26,4.26,0,0,1,.45-.94,18.2,18.2,0,0,1,1.62-2.32,27,27,0,0,1,7.13-6,53.93,53.93,0,0,1,8.44-4c1.11-.43,2-.75,2.65-1a4.36,4.36,0,0,1,1-.28,3.8,3.8,0,0,1-.93.47l-2.59,1.11a68.53,68.53,0,0,0-8.3,4.07,29.81,29.81,0,0,0-7.12,5.79C462.84,348.48,462.14,349.78,462.05,349.73Z" style="fill:#aa6550"></path><path d="M449.58,349.49a5.07,5.07,0,0,1,.48-1.09c.34-.69.83-1.68,1.51-2.88a27.53,27.53,0,0,1,2.71-4,12.49,12.49,0,0,1,2.06-2.05c.83-.56,1.7-1.08,2.61-1.62a71.09,71.09,0,0,1,9.6-4.78,25.88,25.88,0,0,1,3.08-1,5.73,5.73,0,0,1,1.18-.21c0,.09-1.63.47-4.12,1.59a90.38,90.38,0,0,0-9.48,4.89c-.9.53-1.77,1.06-2.58,1.59a12.49,12.49,0,0,0-2,1.93,29.19,29.19,0,0,0-2.76,3.9l-1.66,2.78A5.32,5.32,0,0,1,449.58,349.49Z" style="fill:#aa6550"></path></g></svg>